<svg xmlns="http://www.w3.org/2000/svg" viewBox="0 0 64 64">
  <defs>
    <linearGradient id="bg" x1="0%" y1="0%" x2="100%" y2="100%">
      <stop offset="0%" style="stop-color:#1a1a2e"/>
      <stop offset="100%" style="stop-color:#16213e"/>
    </linearGradient>
    <linearGradient id="accent" x1="0%" y1="0%" x2="100%" y2="100%">
      <stop offset="0%" style="stop-color:#e94560"/>
      <stop offset="100%" style="stop-color:#ff6b6b"/>
    </linearGradient>
  </defs>
  
  <!-- 背景圆角正方形 -->
  <rect x="4" y="4" width="56" height="56" rx="12" fill="url(#bg)"/>
  
  <!-- 小龙虾身体 -->
  <ellipse cx="32" cy="36" rx="12" ry="14" fill="url(#accent)"/>
  
  <!-- 小龙虾头部 -->
  <ellipse cx="32" cy="24" rx="8" ry="6" fill="url(#accent)"/>
  
  <!-- 眼睛 -->
  <circle cx="28" cy="22" r="2.5" fill="#fff"/>
  <circle cx="36" cy="22" r="2.5" fill="#fff"/>
  <circle cx="28" cy="22" r="1" fill="#1a1a2e"/>
  <circle cx="36" cy="22" r="1" fill="#1a1a2e"/>
  
  <!-- 大钳子 - 左 -->
  <path d="M12 38 Q8 32 14 28 Q18 30 16 34 Q14 36 12 38" fill="url(#accent)"/>
  <path d="M14 28 Q10 26 8 28 Q9 30 14 28" fill="url(#accent)"/>
  
  <!-- 大钳子 - 右 -->
  <path d="M52 38 Q56 32 50 28 Q46 30 48 34 Q50 36 52 38" fill="url(#accent)"/>
  <path d="M50 28 Q54 26 56 28 Q55 30 50 28" fill="url(#accent)"/>
  
  <!-- 尾巴 -->
  <path d="M32 50 L28 58 L32 56 L36 58 L32 50" fill="url(#accent)"/>
  
  <!-- 游戏手柄装饰 -->
  <rect x="24" y="12" width="16" height="3" rx="1.5" fill="#4caf50"/>
  <circle cx="27" cy="13.5" r="1" fill="#fff"/>
  <circle cx="37" cy="13.5" r="1" fill="#fff"/>
</svg>